solid bittycadeCase-v3
facet normal 1.0 0.0 4.498960780034523e-46
outer loop
vertex 142.485258640121 5.96315133269791 35.999999999997186
vertex 142.60451824810926 5.05728467483909 52.999999999997186
vertex 142.60451824810926 5.05728467483909 35.999999999997186
endloop
endfacet
facet normal 0.9659258262890696 0.2588190451025162 -1.1200999443908071e-31
outer loop
vertex 142.60451824810926 5.05728467483909 52.999999999997186
vertex 142.485258640121 5.96315133269791 35.999999999997186
vertex 142.485258640121 5.96315133269791 52.999999999997186
endloop
endfacet
facet normal -0.965925826289068 -0.258819045102522 0.0
outer loop
vertex 154.6785910767226 8.292522738620598 35.999999999997186
vertex 154.985258640121 5.96315133269791 32.499999999997186
vertex 154.985258640121 5.96315133269791 35.999999999997186
endloop
endfacet
facet normal -1.0 -2.0495552759987886e-16 0.0
outer loop
vertex 154.985258640121 5.96315133269791 32.499999999997186
vertex 154.6785910767226 8.292522738620598 35.999999999997186
vertex 154.6785910767226 8.292522738620598 32.499999999997186
endloop
endfacet
facet normal -1.0 -2.0495552759987886e-16 0.0
outer loop
vertex 154.985258640121 5.96315133269791 35.999999999997186
vertex 154.6785910767226 3.633779926775213 32.499999999997186
vertex 154.6785910767226 3.633779926775213 35.999999999997186
endloop
endfacet
facet normal -0.9659258262890681 0.2588190451025222 0.0
outer loop
vertex 154.6785910767226 3.633779926775213 32.499999999997186
vertex 154.985258640121 5.96315133269791 35.999999999997186
vertex 154.985258640121 5.96315133269791 32.499999999997186
endloop
endfacet
facet normal -0.25881904510252124 0.9659258262890683 0.0
outer loop
vertex 148.31463004604367 -2.7301811039037123 35.999999999997186
vertex 150.48525864012097 -1.8310773013620472 32.499999999997186
vertex 148.31463004604367 -2.7301811039037123 32.499999999997186
endloop
endfacet
facet normal -0.500000000000001 0.866025403784438 0.0
outer loop
vertex 150.48525864012097 -1.8310773013620472 32.499999999997186
vertex 148.31463004604367 -2.7301811039037123 35.999999999997186
vertex 150.48525864012097 -1.8310773013620472 35.999999999997186
endloop
endfacet
facet normal 0.25881904510251946 0.9659258262890688 -4.180269902021657e-31
outer loop
vertex 145.07939198226217 2.5824109406861773 52.999999999997186
vertex 145.985258640121 2.463151332697916 35.999999999997186
vertex 145.07939198226217 2.5824109406861773 35.999999999997186
endloop
endfacet
facet normal 3.7426661561717005e-16 1.0 -4.327733857248213e-31
outer loop
vertex 145.985258640121 2.463151332697916 35.999999999997186
vertex 145.07939198226217 2.5824109406861773 52.999999999997186
vertex 145.985258640121 2.463151332697916 52.999999999997186
endloop
endfacet
facet normal 0.9659258262890698 -0.25881904510251585 1.1200999443908146e-31
outer loop
vertex 142.60451824810926 6.869017990556731 35.999999999997186
vertex 142.485258640121 5.96315133269791 52.999999999997186
vertex 142.485258640121 5.96315133269791 35.999999999997186
endloop
endfacet
facet normal 1.0 0.0 4.498960780034523e-46
outer loop
vertex 142.485258640121 5.96315133269791 52.999999999997186
vertex 142.60451824810926 6.869017990556731 35.999999999997186
vertex 142.60451824810926 6.869017990556731 52.999999999997186
endloop
endfacet
facet normal -0.7071067811865496 -0.7071067811865455 0.0
outer loop
vertex 152.34921967079993 12.327112363376841 35.999999999997186
vertex 153.77948727418095 10.463151332697914 32.499999999997186
vertex 153.77948727418095 10.463151332697914 35.999999999997186
endloop
endfacet
facet normal -0.8660254037844402 -0.4999999999999976 0.0
outer loop
vertex 153.77948727418095 10.463151332697914 32.499999999997186
vertex 152.34921967079993 12.327112363376841 35.999999999997186
vertex 152.34921967079993 12.327112363376841 32.499999999997186
endloop
endfacet
facet normal 5.881332531126956e-16 1.0 0.0
outer loop
vertex 145.985258640121 -3.0368486673020962 35.999999999997186
vertex 148.31463004604367 -2.7301811039037123 32.499999999997186
vertex 145.985258640121 -3.0368486673020962 32.499999999997186
endloop
endfacet
facet normal -0.25881904510252124 0.9659258262890683 0.0
outer loop
vertex 148.31463004604367 -2.7301811039037123 32.499999999997186
vertex 145.985258640121 -3.0368486673020962 35.999999999997186
vertex 148.31463004604367 -2.7301811039037123 35.999999999997186
endloop
endfacet
facet normal -0.8660254037844379 0.5000000000000012 0.0
outer loop
vertex 153.77948727418095 1.4631513326979024 35.999999999997186
vertex 152.34921967079993 -0.40080969798102406 32.499999999997186
vertex 152.34921967079993 -0.40080969798102406 35.999999999997186
endloop
endfacet
facet normal -0.707106781186547 0.7071067811865481 0.0
outer loop
vertex 152.34921967079993 -0.40080969798102406 32.499999999997186
vertex 153.77948727418095 1.4631513326979024 35.999999999997186
vertex 153.77948727418095 1.4631513326979024 32.499999999997186
endloop
endfacet
facet normal 0.965925826289068 -0.25881904510252185 0.0
outer loop
vertex 137.29192620351938 8.292522738620601 32.499999999997186
vertex 136.98525864012097 5.963151332697911 35.999999999997186
vertex 136.98525864012097 5.963151332697911 32.499999999997186
endloop
endfacet
facet normal 1.0 6.237776926952836e-17 0.0
outer loop
vertex 136.98525864012097 5.963151332697911 35.999999999997186
vertex 137.29192620351938 8.292522738620601 32.499999999997186
vertex 137.29192620351938 8.292522738620601 35.999999999997186
endloop
endfacet
facet normal 0.9659258262890681 0.25881904510252207 0.0
outer loop
vertex 137.29192620351938 3.6337799267752247 32.499999999997186
vertex 138.19103000606106 1.4631513326979095 35.999999999997186
vertex 138.19103000606106 1.4631513326979095 32.499999999997186
endloop
endfacet
facet normal 0.8660254037844402 0.4999999999999976 0.0
outer loop
vertex 138.19103000606106 1.4631513326979095 35.999999999997186
vertex 137.29192620351938 3.6337799267752247 32.499999999997186
vertex 137.29192620351938 3.6337799267752247 35.999999999997186
endloop
endfacet
facet normal 4.5372189765863855e-46 -4.327733857248212e-31 -1.0
outer loop
vertex 142.60451824810926 6.869017990556731 52.999999999997186
vertex 142.60451824810926 5.05728467483909 52.999999999997186
vertex 142.485258640121 5.96315133269791 52.999999999997186
endloop
endfacet
facet normal 4.5372189765863855e-46 -4.327733857248212e-31 -1.0
outer loop
vertex 142.60451824810926 5.05728467483909 52.999999999997186
vertex 142.60451824810926 6.869017990556731 52.999999999997186
vertex 142.95416972687545 7.713151332697908 52.999999999997186
endloop
endfacet
facet normal 4.5372189765863855e-46 -4.327733857248212e-31 -1.0
outer loop
vertex 142.60451824810926 5.05728467483909 52.999999999997186
vertex 142.95416972687545 7.713151332697908 52.999999999997186
vertex 142.95416972687545 4.213151332697914 52.999999999997186
endloop
endfacet
facet normal 4.5372189765863855e-46 -4.327733857248212e-31 -1.0
outer loop
vertex 142.95416972687545 4.213151332697914 52.999999999997186
vertex 142.95416972687545 7.713151332697908 52.999999999997186
vertex 143.51038490596807 8.438025066850821 52.999999999997186
endloop
endfacet
facet normal 4.5372189765863855e-46 -4.327733857248212e-31 -1.0
outer loop
vertex 142.95416972687545 4.213151332697914 52.999999999997186
vertex 143.51038490596807 8.438025066850821 52.999999999997186
vertex 143.51038490596807 3.4882775985449985 52.999999999997186
endloop
endfacet
facet normal 4.5372189765863855e-46 -4.327733857248212e-31 -1.0
outer loop
vertex 143.51038490596807 3.4882775985449985 52.999999999997186
vertex 143.51038490596807 8.438025066850821 52.999999999997186
vertex 144.235258640121 8.994240245943438 52.999999999997186
endloop
endfacet
facet normal 4.5372189765863855e-46 -4.327733857248212e-31 -1.0
outer loop
vertex 143.51038490596807 3.4882775985449985 52.999999999997186
vertex 144.235258640121 8.994240245943438 52.999999999997186
vertex 144.23525864012097 2.932062419452381 52.999999999997186
endloop
endfacet
facet normal 4.5372189765863855e-46 -4.327733857248212e-31 -1.0
outer loop
vertex 144.23525864012097 2.932062419452381 52.999999999997186
vertex 144.235258640121 8.994240245943438 52.999999999997186
vertex 145.07939198226217 2.5824109406861773 52.999999999997186
endloop
endfacet
facet normal 4.5372189765863855e-46 -4.327733857248212e-31 -1.0
outer loop
vertex 145.07939198226217 2.5824109406861773 52.999999999997186
vertex 144.235258640121 8.994240245943438 52.999999999997186
vertex 145.07939198226217 9.343891724709643 52.999999999997186
endloop
endfacet
facet normal 4.5372189765863855e-46 -4.327733857248212e-31 -1.0
outer loop
vertex 145.07939198226217 2.5824109406861773 52.999999999997186
vertex 145.07939198226217 9.343891724709643 52.999999999997186
vertex 145.985258640121 9.463151332697903 52.999999999997186
endloop
endfacet
facet normal 4.5372189765863855e-46 -4.327733857248212e-31 -1.0
outer loop
vertex 145.07939198226217 2.5824109406861773 52.999999999997186
vertex 145.985258640121 9.463151332697903 52.999999999997186
vertex 145.985258640121 2.463151332697916 52.999999999997186
endloop
endfacet
facet normal 4.5372189765863855e-46 -4.327733857248212e-31 -1.0
outer loop
vertex 145.985258640121 2.463151332697916 52.999999999997186
vertex 145.985258640121 9.463151332697903 52.999999999997186
vertex 146.8911252979798 9.343891724709643 52.999999999997186
endloop
endfacet
facet normal 4.5372189765863855e-46 -4.327733857248212e-31 -1.0
outer loop
vertex 145.985258640121 2.463151332697916 52.999999999997186
vertex 146.8911252979798 9.343891724709643 52.999999999997186
vertex 146.8911252979798 2.5824109406861773 52.999999999997186
endloop
endfacet
facet normal 4.5372189765863855e-46 -4.327733857248212e-31 -1.0
outer loop
vertex 146.8911252979798 2.5824109406861773 52.999999999997186
vertex 146.8911252979798 9.343891724709643 52.999999999997186
vertex 147.735258640121 8.994240245943438 52.999999999997186
endloop
endfacet
facet normal 4.5372189765863855e-46 -4.327733857248212e-31 -1.0
outer loop
vertex 146.8911252979798 2.5824109406861773 52.999999999997186
vertex 147.735258640121 8.994240245943438 52.999999999997186
vertex 147.73525864012097 2.9320624194523783 52.999999999997186
endloop
endfacet
facet normal 4.5372189765863855e-46 -4.327733857248212e-31 -1.0
outer loop
vertex 147.73525864012097 2.9320624194523783 52.999999999997186
vertex 147.735258640121 8.994240245943438 52.999999999997186
vertex 148.46013237427388 3.488277598544997 52.999999999997186
endloop
endfacet
facet normal 4.5372189765863855e-46 -4.327733857248212e-31 -1.0
outer loop
vertex 148.46013237427388 3.488277598544997 52.999999999997186
vertex 147.735258640121 8.994240245943438 52.999999999997186
vertex 148.4601323742739 8.438025066850821 52.999999999997186
endloop
endfacet
facet normal 4.5372189765863855e-46 -4.327733857248212e-31 -1.0
outer loop
vertex 148.46013237427388 3.488277598544997 52.999999999997186
vertex 148.4601323742739 8.438025066850821 52.999999999997186
vertex 149.01634755336653 4.213151332697912 52.999999999997186
endloop
endfacet
facet normal 4.5372189765863855e-46 -4.327733857248212e-31 -1.0
outer loop
vertex 149.01634755336653 4.213151332697912 52.999999999997186
vertex 148.4601323742739 8.438025066850821 52.999999999997186
vertex 149.01634755336653 7.713151332697906 52.999999999997186
endloop
endfacet
facet normal 4.5372189765863855e-46 -4.327733857248212e-31 -1.0
outer loop
vertex 149.01634755336653 4.213151332697912 52.999999999997186
vertex 149.01634755336653 7.713151332697906 52.999999999997186
vertex 149.36599903213272 6.869017990556731 52.999999999997186
endloop
endfacet
facet normal 4.5372189765863855e-46 -4.327733857248212e-31 -1.0
outer loop
vertex 149.01634755336653 4.213151332697912 52.999999999997186
vertex 149.36599903213272 6.869017990556731 52.999999999997186
vertex 149.36599903213272 5.057284674839085 52.999999999997186
endloop
endfacet
facet normal 4.5372189765863855e-46 -4.327733857248212e-31 -1.0
outer loop
vertex 149.36599903213272 5.057284674839085 52.999999999997186
vertex 149.36599903213272 6.869017990556731 52.999999999997186
vertex 149.48525864012097 5.96315133269791 52.999999999997186
endloop
endfacet
facet normal -0.8551486719688254 0.4937203159583543 0.15799050110667265
outer loop
vertex 140.78910621741437 8.963151332697924 57.499999999997186
vertex 136.3260003772303 8.551341783723121 32.499999999997186
vertex 140.18970368238658 7.516065603313048 57.499999999997186
endloop
endfacet
facet normal -0.9537944082955427 0.2555684414481136 0.15799050110667306
outer loop
vertex 136.3260003772303 8.551341783723121 32.499999999997186
vertex 140.78910621741437 8.963151332697924 57.499999999997186
vertex 137.3250046022766 10.963151332697915 32.499999999997186
endloop
endfacet
facet normal 0.0 0.0 1.0
outer loop
vertex 140.18970368238658 4.410237062082781 57.499999999997186
vertex 140.18970368238658 7.516065603313048 57.499999999997186
vertex 139.98525864012097 5.96315133269791 57.499999999997186
endloop
endfacet
facet normal 0.0 0.0 1.0
outer loop
vertex 140.18970368238658 7.516065603313048 57.499999999997186
vertex 140.18970368238658 4.410237062082781 57.499999999997186
vertex 140.78910621741434 2.9631513326979038 57.499999999997186
endloop
endfacet
facet normal 0.0 0.0 1.0
outer loop
vertex 140.18970368238658 7.516065603313048 57.499999999997186
vertex 140.78910621741434 2.9631513326979038 57.499999999997186
vertex 140.78910621741437 8.963151332697924 57.499999999997186
endloop
endfacet
facet normal 0.0 0.0 1.0
outer loop
vertex 140.78910621741437 8.963151332697924 57.499999999997186
vertex 140.78910621741434 2.9631513326979038 57.499999999997186
vertex 141.74261795300168 1.7205106455786174 57.499999999997186
endloop
endfacet
facet normal 0.0 0.0 1.0
outer loop
vertex 140.78910621741437 8.963151332697924 57.499999999997186
vertex 141.74261795300168 1.7205106455786174 57.499999999997186
vertex 141.74261795300168 10.205792019817208 57.499999999997186
endloop
endfacet
facet normal 0.0 0.0 1.0
outer loop
vertex 141.74261795300168 10.205792019817208 57.499999999997186
vertex 141.74261795300168 1.7205106455786174 57.499999999997186
vertex 142.985258640121 0.7669989099912697 57.499999999997186
endloop
endfacet
facet normal 0.0 0.0 1.0
outer loop
vertex 141.74261795300168 10.205792019817208 57.499999999997186
vertex 142.985258640121 0.7669989099912697 57.499999999997186
vertex 142.985258640121 11.159303755404553 57.499999999997186
endloop
endfacet
facet normal 0.0 0.0 1.0
outer loop
vertex 142.985258640121 11.159303755404553 57.499999999997186
vertex 142.985258640121 0.7669989099912697 57.499999999997186
vertex 144.43234436950587 0.16759637496349 57.499999999997186
endloop
endfacet
facet normal 0.0 0.0 1.0
outer loop
vertex 142.985258640121 11.159303755404553 57.499999999997186
vertex 144.43234436950587 0.16759637496349 57.499999999997186
vertex 144.43234436950587 11.75870629043233 57.499999999997186
endloop
endfacet
facet normal 0.0 0.0 1.0
outer loop
vertex 144.43234436950587 11.75870629043233 57.499999999997186
vertex 144.43234436950587 0.16759637496349 57.499999999997186
vertex 145.985258640121 -0.036848667302101214 57.499999999997186
endloop
endfacet
facet normal 0.0 0.0 1.0
outer loop
vertex 144.43234436950587 11.75870629043233 57.499999999997186
vertex 145.985258640121 -0.036848667302101214 57.499999999997186
vertex 145.985258640121 11.96315133269792 57.499999999997186
endloop
endfacet
facet normal 0.0 0.0 1.0
outer loop
vertex 145.985258640121 11.96315133269792 57.499999999997186
vertex 145.985258640121 -0.036848667302101214 57.499999999997186
vertex 147.5381729107361 0.16759637496349 57.499999999997186
endloop
endfacet
facet normal 0.0 0.0 1.0
outer loop
vertex 145.985258640121 11.96315133269792 57.499999999997186
vertex 147.5381729107361 0.16759637496349 57.499999999997186
vertex 147.53817291073614 11.75870629043233 57.499999999997186
endloop
endfacet
facet normal 0.0 0.0 1.0
outer loop
vertex 147.53817291073614 11.75870629043233 57.499999999997186
vertex 147.5381729107361 0.16759637496349 57.499999999997186
vertex 148.98525864012097 0.7669989099912683 57.499999999997186
endloop
endfacet
facet normal 0.0 0.0 1.0
outer loop
vertex 147.53817291073614 11.75870629043233 57.499999999997186
vertex 148.98525864012097 0.7669989099912683 57.499999999997186
vertex 148.98525864012097 11.15930375540455 57.499999999997186
endloop
endfacet
facet normal 0.0 0.0 1.0
outer loop
vertex 148.98525864012097 11.15930375540455 57.499999999997186
vertex 148.98525864012097 0.7669989099912683 57.499999999997186
vertex 150.2278993272403 1.7205106455786174 57.499999999997186
endloop
endfacet
facet normal 0.0 0.0 1.0
outer loop
vertex 148.98525864012097 11.15930375540455 57.499999999997186
vertex 150.2278993272403 1.7205106455786174 57.499999999997186
vertex 150.2278993272403 10.205792019817205 57.499999999997186
endloop
endfacet
facet normal 0.0 0.0 1.0
outer loop
vertex 150.2278993272403 10.205792019817205 57.499999999997186
vertex 150.2278993272403 1.7205106455786174 57.499999999997186
vertex 151.1814110628276 2.963151332697907 57.499999999997186
endloop
endfacet
facet normal 0.0 0.0 1.0
outer loop
vertex 150.2278993272403 10.205792019817205 57.499999999997186
vertex 151.1814110628276 2.963151332697907 57.499999999997186
vertex 151.18141106282764 8.963151332697919 57.499999999997186
endloop
endfacet
facet normal 0.0 0.0 1.0
outer loop
vertex 151.18141106282764 8.963151332697919 57.499999999997186
vertex 151.1814110628276 2.963151332697907 57.499999999997186
vertex 151.7808135978554 4.410237062082785 57.499999999997186
endloop
endfacet
facet normal 0.0 0.0 1.0
outer loop
vertex 151.18141106282764 8.963151332697919 57.499999999997186
vertex 151.7808135978554 4.410237062082785 57.499999999997186
vertex 151.7808135978554 7.516065603313041 57.499999999997186
endloop
endfacet
facet normal 0.0 0.0 1.0
outer loop
vertex 151.7808135978554 7.516065603313041 57.499999999997186
vertex 151.7808135978554 4.410237062082785 57.499999999997186
vertex 151.985258640121 5.963151332697913 57.499999999997186
endloop
endfacet
facet normal -0.6982259668474322 0.698225966847432 0.15799050110667245
outer loop
vertex 141.74261795300168 10.205792019817208 57.499999999997186
vertex 140.985258640121 14.6234053705423 32.499999999997186
vertex 138.91419082825553 13.034219144563389 32.499999999997186
endloop
endfacet
facet normal -0.4937203159583516 0.8551486719688267 0.15799050110667248
outer loop
vertex 140.985258640121 14.6234053705423 32.499999999997186
vertex 141.74261795300168 10.205792019817208 57.499999999997186
vertex 142.985258640121 11.159303755404553 57.499999999997186
endloop
endfacet
facet normal 0.4937203159583518 -0.8551486719688267 0.1579905011066727
outer loop
vertex 148.98525864012097 0.7669989099912683 57.499999999997186
vertex 148.5734490911462 -3.6961069301927787 32.499999999997186
vertex 150.98525864012097 -2.697102705146485 32.499999999997186
endloop
endfacet
facet normal 0.25556844144811125 -0.9537944082955435 0.15799050110667273
outer loop
vertex 148.5734490911462 -3.6961069301927787 32.499999999997186
vertex 148.98525864012097 0.7669989099912683 57.499999999997186
vertex 147.5381729107361 0.16759637496349 57.499999999997186
endloop
endfacet
facet normal 0.8660254037844382 -0.500000000000001 0.0
outer loop
vertex 138.19103000606106 10.463151332697915 32.499999999997186
vertex 137.29192620351938 8.292522738620601 35.999999999997186
vertex 137.29192620351938 8.292522738620601 32.499999999997186
endloop
endfacet
facet normal 0.965925826289068 -0.25881904510252185 0.0
outer loop
vertex 137.29192620351938 8.292522738620601 35.999999999997186
vertex 138.19103000606106 10.463151332697915 32.499999999997186
vertex 138.19103000606106 10.463151332697915 35.999999999997186
endloop
endfacet
facet normal 0.8660254037844434 -0.49999999999999184 2.163866928624074e-31
outer loop
vertex 142.95416972687545 7.713151332697908 35.999999999997186
vertex 142.60451824810926 6.869017990556731 52.999999999997186
vertex 142.60451824810926 6.869017990556731 35.999999999997186
endloop
endfacet
facet normal 0.9659258262890698 -0.25881904510251585 1.1200999443908146e-31
outer loop
vertex 142.60451824810926 6.869017990556731 52.999999999997186
vertex 142.95416972687545 7.713151332697908 35.999999999997186
vertex 142.95416972687545 7.713151332697908 52.999999999997186
endloop
endfacet
facet normal -2.1984398854950864e-16 0.9874406319167055 0.15799050110667257
outer loop
vertex 145.985258640121 11.96315133269792 57.499999999997186
vertex 148.5734490911462 15.622409595588596 32.499999999997186
vertex 145.985258640121 15.963151332697914 32.499999999997186
endloop
endfacet
facet normal 0.255568441448111 0.9537944082955435 0.15799050110667257
outer loop
vertex 148.5734490911462 15.622409595588596 32.499999999997186
vertex 145.985258640121 11.96315133269792 57.499999999997186
vertex 147.53817291073614 11.75870629043233 57.499999999997186
endloop
endfacet
facet normal -0.9537944082955426 0.25556844144811375 0.15799050110667306
outer loop
vertex 140.18970368238658 7.516065603313048 57.499999999997186
vertex 135.98525864012097 5.963151332697911 32.499999999997186
vertex 139.98525864012097 5.96315133269791 57.499999999997186
endloop
endfacet
facet normal -0.9874406319167054 -1.2638839218940173e-16 0.15799050110667295
outer loop
vertex 135.98525864012097 5.963151332697911 32.499999999997186
vertex 140.18970368238658 7.516065603313048 57.499999999997186
vertex 136.3260003772303 8.551341783723121 32.499999999997186
endloop
endfacet
facet normal 0.8551486719688253 0.49372031595835403 0.15799050110667237
outer loop
vertex 154.64551267796537 10.963151332697912 32.499999999997186
vertex 150.2278993272403 10.205792019817205 57.499999999997186
vertex 151.18141106282764 8.963151332697919 57.499999999997186
endloop
endfacet
facet normal 0.6982259668474327 0.6982259668474314 0.15799050110667234
outer loop
vertex 150.2278993272403 10.205792019817205 57.499999999997186
vertex 154.64551267796537 10.963151332697912 32.499999999997186
vertex 153.05632645198645 13.034219144563385 32.499999999997186
endloop
endfacet
facet normal -0.49372031595835203 -0.8551486719688266 0.15799050110667281
outer loop
vertex 142.985258640121 0.7669989099912697 57.499999999997186
vertex 138.9141908282555 -1.1079164791675649 32.499999999997186
vertex 140.98525864012097 -2.6971027051464778 32.499999999997186
endloop
endfacet
facet normal -0.698225966847433 -0.698225966847431 0.15799050110667281
outer loop
vertex 138.9141908282555 -1.1079164791675649 32.499999999997186
vertex 142.985258640121 0.7669989099912697 57.499999999997186
vertex 141.74261795300168 1.7205106455786174 57.499999999997186
endloop
endfacet
facet normal -0.25556844144811175 -0.9537944082955433 0.15799050110667257
outer loop
vertex 144.43234436950587 0.16759637496349 57.499999999997186
vertex 140.98525864012097 -2.6971027051464778 32.499999999997186
vertex 143.3970681890958 -3.6961069301927756 32.499999999997186
endloop
endfacet
facet normal -0.4937203159583521 -0.8551486719688264 0.1579905011066728
outer loop
vertex 140.98525864012097 -2.6971027051464778 32.499999999997186
vertex 144.43234436950587 0.16759637496349 57.499999999997186
vertex 142.985258640121 0.7669989099912697 57.499999999997186
endloop
endfacet
facet normal 0.9537944082955429 -0.25556844144811414 0.15799050110667268
outer loop
vertex 155.64451690301166 3.3749608816726933 32.499999999997186
vertex 151.1814110628276 2.963151332697907 57.499999999997186
vertex 154.64551267796537 0.9631513326979033 32.499999999997186
endloop
endfacet
facet normal 0.8551486719688265 -0.49372031595835186 0.1579905011066727
outer loop
vertex 151.1814110628276 2.963151332697907 57.499999999997186
vertex 155.64451690301166 3.3749608816726933 32.499999999997186
vertex 151.7808135978554 4.410237062082785 57.499999999997186
endloop
endfacet
facet normal 0.6982259668474324 -0.6982259668474317 0.15799050110667268
outer loop
vertex 150.2278993272403 1.7205106455786174 57.499999999997186
vertex 150.98525864012097 -2.697102705146485 32.499999999997186
vertex 153.05632645198645 -1.1079164791675706 32.499999999997186
endloop
endfacet
facet normal 0.49372031595835186 -0.8551486719688267 0.15799050110667268
outer loop
vertex 150.98525864012097 -2.697102705146485 32.499999999997186
vertex 150.2278993272403 1.7205106455786174 57.499999999997186
vertex 148.98525864012097 0.7669989099912683 57.499999999997186
endloop
endfacet
facet normal -0.9537944082955432 -0.2555684414481122 0.15799050110667287
outer loop
vertex 140.18970368238658 4.410237062082781 57.499999999997186
vertex 135.98525864012097 5.963151332697911 32.499999999997186
vertex 136.3260003772303 3.3749608816727044 32.499999999997186
endloop
endfacet
facet normal -0.9874406319167054 -1.2638839218940173e-16 0.15799050110667295
outer loop
vertex 135.98525864012097 5.963151332697911 32.499999999997186
vertex 140.18970368238658 4.410237062082781 57.499999999997186
vertex 139.98525864012097 5.96315133269791 57.499999999997186
endloop
endfacet
facet normal -0.4937203159583516 0.8551486719688267 0.15799050110667248
outer loop
vertex 142.985258640121 11.159303755404553 57.499999999997186
vertex 143.3970681890958 15.622409595588596 32.499999999997186
vertex 140.985258640121 14.6234053705423 32.499999999997186
endloop
endfacet
facet normal -0.2555684414481117 0.9537944082955435 0.15799050110667262
outer loop
vertex 143.3970681890958 15.622409595588596 32.499999999997186
vertex 142.985258640121 11.159303755404553 57.499999999997186
vertex 144.43234436950587 11.75870629043233 57.499999999997186
endloop
endfacet
facet normal 0.8551486719688265 -0.493720315958352 0.15799050110667273
outer loop
vertex 154.64551267796537 0.9631513326979033 32.499999999997186
vertex 150.2278993272403 1.7205106455786174 57.499999999997186
vertex 153.05632645198645 -1.1079164791675706 32.499999999997186
endloop
endfacet
facet normal 0.6982259668474324 -0.6982259668474317 0.15799050110667268
outer loop
vertex 150.2278993272403 1.7205106455786174 57.499999999997186
vertex 154.64551267796537 0.9631513326979033 32.499999999997186
vertex 151.1814110628276 2.963151332697907 57.499999999997186
endloop
endfacet
facet normal 0.9537944082955433 0.25556844144811214 0.15799050110667293
outer loop
vertex 155.6445169030117 8.551341783723117 32.499999999997186
vertex 151.985258640121 5.963151332697913 57.499999999997186
vertex 155.985258640121 5.96315133269791 32.499999999997186
endloop
endfacet
facet normal 0.9874406319167054 -3.0426408015251982e-15 0.15799050110667284
outer loop
vertex 151.985258640121 5.963151332697913 57.499999999997186
vertex 155.6445169030117 8.551341783723117 32.499999999997186
vertex 151.7808135978554 7.516065603313041 57.499999999997186
endloop
endfacet
facet normal 0.9874406319167054 -3.0062381856479144e-15 0.15799050110667284
outer loop
vertex 155.985258640121 5.96315133269791 32.499999999997186
vertex 151.7808135978554 4.410237062082785 57.499999999997186
vertex 155.64451690301166 3.3749608816726933 32.499999999997186
endloop
endfacet
facet normal 0.9537944082955426 -0.25556844144811414 0.15799050110667265
outer loop
vertex 151.7808135978554 4.410237062082785 57.499999999997186
vertex 155.985258640121 5.96315133269791 32.499999999997186
vertex 151.985258640121 5.963151332697913 57.499999999997186
endloop
endfacet
facet normal -0.6982259668474322 0.698225966847432 0.15799050110667245
outer loop
vertex 141.74261795300168 10.205792019817208 57.499999999997186
vertex 137.3250046022766 10.963151332697915 32.499999999997186
vertex 140.78910621741437 8.963151332697924 57.499999999997186
endloop
endfacet
facet normal -0.8551486719688254 0.4937203159583543 0.15799050110667262
outer loop
vertex 137.3250046022766 10.963151332697915 32.499999999997186
vertex 141.74261795300168 10.205792019817208 57.499999999997186
vertex 138.91419082825553 13.034219144563389 32.499999999997186
endloop
endfacet
facet normal -0.25556844144811164 0.9537944082955435 0.15799050110667262
outer loop
vertex 144.43234436950587 11.75870629043233 57.499999999997186
vertex 145.985258640121 15.963151332697914 32.499999999997186
vertex 143.3970681890958 15.622409595588596 32.499999999997186
endloop
endfacet
facet normal -2.0763807288258867e-16 0.9874406319167054 0.15799050110667257
outer loop
vertex 145.985258640121 15.963151332697914 32.499999999997186
vertex 144.43234436950587 11.75870629043233 57.499999999997186
vertex 145.985258640121 11.96315133269792 57.499999999997186
endloop
endfacet
facet normal 0.2555684414481111 0.9537944082955435 0.15799050110667254
outer loop
vertex 147.53817291073614 11.75870629043233 57.499999999997186
vertex 150.985258640121 14.6234053705423 32.499999999997186
vertex 148.5734490911462 15.622409595588596 32.499999999997186
endloop
endfacet
facet normal 0.4937203159583533 0.8551486719688258 0.15799050110667268
outer loop
vertex 150.985258640121 14.6234053705423 32.499999999997186
vertex 147.53817291073614 11.75870629043233 57.499999999997186
vertex 148.98525864012097 11.15930375540455 57.499999999997186
endloop
endfacet
facet normal -0.8660254037844435 -0.4999999999999917 2.1638669286240663e-31
outer loop
vertex 149.01634755336653 7.713151332697906 52.999999999997186
vertex 149.36599903213272 6.869017990556731 35.999999999997186
vertex 149.36599903213272 6.869017990556731 52.999999999997186
endloop
endfacet
facet normal -0.9659258262890696 -0.25881904510251613 1.120099944390807e-31
outer loop
vertex 149.36599903213272 6.869017990556731 35.999999999997186
vertex 149.01634755336653 7.713151332697906 52.999999999997186
vertex 149.01634755336653 7.713151332697906 35.999999999997186
endloop
endfacet
facet normal 0.8660254037844402 0.4999999999999976 0.0
outer loop
vertex 138.19103000606106 1.4631513326979095 32.499999999997186
vertex 139.62129760944205 -0.40080969798101845 35.999999999997186
vertex 139.62129760944205 -0.40080969798101845 32.499999999997186
endloop
endfacet
facet normal 0.7071067811865499 0.7071067811865454 0.0
outer loop
vertex 139.62129760944205 -0.40080969798101845 35.999999999997186
vertex 138.19103000606106 1.4631513326979095 32.499999999997186
vertex 138.19103000606106 1.4631513326979095 35.999999999997186
endloop
endfacet
facet normal -0.9659258262890681 0.2588190451025222 0.0
outer loop
vertex 154.6785910767226 3.633779926775213 35.999999999997186
vertex 153.77948727418095 1.4631513326979024 32.499999999997186
vertex 153.77948727418095 1.4631513326979024 35.999999999997186
endloop
endfacet
facet normal -0.8660254037844379 0.5000000000000012 0.0
outer loop
vertex 153.77948727418095 1.4631513326979024 32.499999999997186
vertex 154.6785910767226 3.633779926775213 35.999999999997186
vertex 154.6785910767226 3.633779926775213 32.499999999997186
endloop
endfacet
facet normal 1.0 6.237776926952836e-17 0.0
outer loop
vertex 136.98525864012097 5.963151332697911 32.499999999997186
vertex 137.29192620351938 3.6337799267752247 35.999999999997186
vertex 137.29192620351938 3.6337799267752247 32.499999999997186
endloop
endfacet
facet normal 0.9659258262890681 0.25881904510252207 0.0
outer loop
vertex 137.29192620351938 3.6337799267752247 35.999999999997186
vertex 136.98525864012097 5.963151332697911 32.499999999997186
vertex 136.98525864012097 5.963151332697911 35.999999999997186
endloop
endfacet
facet normal 0.49999999999999634 -0.8660254037844409 3.747927461194981e-31
outer loop
vertex 144.235258640121 8.994240245943438 52.999999999997186
vertex 143.51038490596807 8.438025066850821 35.999999999997186
vertex 144.235258640121 8.994240245943438 35.999999999997186
endloop
endfacet
facet normal 0.7071067811865422 -0.7071067811865528 3.0601699576308504e-31
outer loop
vertex 143.51038490596807 8.438025066850821 35.999999999997186
vertex 144.235258640121 8.994240245943438 52.999999999997186
vertex 143.51038490596807 8.438025066850821 52.999999999997186
endloop
endfacet
facet normal 0.9659258262890696 0.2588190451025162 -1.1200999443908071e-31
outer loop
vertex 142.60451824810926 5.05728467483909 35.999999999997186
vertex 142.95416972687545 4.213151332697914 52.999999999997186
vertex 142.95416972687545 4.213151332697914 35.999999999997186
endloop
endfacet
facet normal 0.8660254037844436 0.49999999999999145 -2.163866928624066e-31
outer loop
vertex 142.95416972687545 4.213151332697914 52.999999999997186
vertex 142.60451824810926 5.05728467483909 35.999999999997186
vertex 142.60451824810926 5.05728467483909 52.999999999997186
endloop
endfacet
facet normal 0.7071067811865499 0.7071067811865454 0.0
outer loop
vertex 139.62129760944205 -0.40080969798101845 35.999999999997186
vertex 141.48525864012097 -1.8310773013620414 32.499999999997186
vertex 139.62129760944205 -0.40080969798101845 32.499999999997186
endloop
endfacet
facet normal 0.49999999999999994 0.8660254037844387 0.0
outer loop
vertex 141.48525864012097 -1.8310773013620414 32.499999999997186
vertex 139.62129760944205 -0.40080969798101845 35.999999999997186
vertex 141.48525864012097 -1.8310773013620414 35.999999999997186
endloop
endfacet
facet normal 0.7071067811865467 -0.7071067811865485 0.0
outer loop
vertex 139.62129760944208 12.327112363376841 32.499999999997186
vertex 138.19103000606106 10.463151332697915 35.999999999997186
vertex 138.19103000606106 10.463151332697915 32.499999999997186
endloop
endfacet
facet normal 0.8660254037844382 -0.500000000000001 0.0
outer loop
vertex 138.19103000606106 10.463151332697915 35.999999999997186
vertex 139.62129760944208 12.327112363376841 32.499999999997186
vertex 139.62129760944208 12.327112363376841 35.999999999997186
endloop
endfacet
facet normal -0.7071067811865479 -0.7071067811865472 3.0601699576308198e-31
outer loop
vertex 148.4601323742739 8.438025066850821 52.999999999997186
vertex 147.735258640121 8.994240245943438 35.999999999997186
vertex 148.4601323742739 8.438025066850821 35.999999999997186
endloop
endfacet
facet normal -0.4999999999999987 -0.8660254037844394 3.74792746119497e-31
outer loop
vertex 147.735258640121 8.994240245943438 35.999999999997186
vertex 148.4601323742739 8.438025066850821 52.999999999997186
vertex 147.735258640121 8.994240245943438 52.999999999997186
endloop
endfacet
facet normal -0.500000000000001 0.866025403784438 0.0
outer loop
vertex 150.48525864012097 -1.8310773013620472 35.999999999997186
vertex 152.34921967079993 -0.40080969798102406 32.499999999997186
vertex 150.48525864012097 -1.8310773013620472 32.499999999997186
endloop
endfacet
facet normal -0.707106781186547 0.7071067811865481 0.0
outer loop
vertex 152.34921967079993 -0.40080969798102406 32.499999999997186
vertex 150.48525864012097 -1.8310773013620472 35.999999999997186
vertex 152.34921967079993 -0.40080969798102406 35.999999999997186
endloop
endfacet
facet normal -0.8660254037844402 -0.4999999999999976 0.0
outer loop
vertex 153.77948727418095 10.463151332697914 35.999999999997186
vertex 154.6785910767226 8.292522738620598 32.499999999997186
vertex 154.6785910767226 8.292522738620598 35.999999999997186
endloop
endfacet
facet normal -0.965925826289068 -0.258819045102522 0.0
outer loop
vertex 154.6785910767226 8.292522738620598 32.499999999997186
vertex 153.77948727418095 10.463151332697914 35.999999999997186
vertex 153.77948727418095 10.463151332697914 32.499999999997186
endloop
endfacet
facet normal 0.5000000000000011 -0.866025403784438 0.0
outer loop
vertex 141.485258640121 13.757379966757862 35.999999999997186
vertex 139.62129760944208 12.327112363376841 32.499999999997186
vertex 141.485258640121 13.757379966757862 32.499999999997186
endloop
endfacet
facet normal 0.7071067811865467 -0.7071067811865485 0.0
outer loop
vertex 139.62129760944208 12.327112363376841 32.499999999997186
vertex 141.485258640121 13.757379966757862 35.999999999997186
vertex 139.62129760944208 12.327112363376841 35.999999999997186
endloop
endfacet
facet normal 0.25881904510252207 -0.9659258262890681 0.0
outer loop
vertex 143.6558872341983 14.65648376929953 35.999999999997186
vertex 141.485258640121 13.757379966757862 32.499999999997186
vertex 143.6558872341983 14.65648376929953 32.499999999997186
endloop
endfacet
facet normal 0.5000000000000011 -0.866025403784438 0.0
outer loop
vertex 141.485258640121 13.757379966757862 32.499999999997186
vertex 143.6558872341983 14.65648376929953 35.999999999997186
vertex 141.485258640121 13.757379966757862 35.999999999997186
endloop
endfacet
facet normal -0.2588190451025188 -0.965925826289069 4.180269902021658e-31
outer loop
vertex 146.8911252979798 9.343891724709643 52.999999999997186
vertex 145.985258640121 9.463151332697903 35.999999999997186
vertex 146.8911252979798 9.343891724709643 35.999999999997186
endloop
endfacet
facet normal 0.0 -1.0 4.327733857248213e-31
outer loop
vertex 145.985258640121 9.463151332697903 35.999999999997186
vertex 146.8911252979798 9.343891724709643 52.999999999997186
vertex 145.985258640121 9.463151332697903 52.999999999997186
endloop
endfacet
facet normal -0.25881904510252024 -0.9659258262890684 0.0
outer loop
vertex 148.31463004604367 14.65648376929953 35.999999999997186
vertex 145.985258640121 14.963151332697915 32.499999999997186
vertex 148.31463004604367 14.65648376929953 32.499999999997186
endloop
endfacet
facet normal 0.0 -1.0 0.0
outer loop
vertex 145.985258640121 14.963151332697915 32.499999999997186
vertex 148.31463004604367 14.65648376929953 35.999999999997186
vertex 145.985258640121 14.963151332697915 35.999999999997186
endloop
endfacet
facet normal 0.2588190451025233 -0.9659258262890678 4.180269902021654e-31
outer loop
vertex 145.07939198226217 9.343891724709643 52.999999999997186
vertex 144.235258640121 8.994240245943438 35.999999999997186
vertex 145.07939198226217 9.343891724709643 35.999999999997186
endloop
endfacet
facet normal 0.49999999999999634 -0.8660254037844409 3.747927461194981e-31
outer loop
vertex 144.235258640121 8.994240245943438 35.999999999997186
vertex 145.07939198226217 9.343891724709643 52.999999999997186
vertex 144.235258640121 8.994240245943438 52.999999999997186
endloop
endfacet
facet normal -1.0 -2.1386663749552593e-16 -3.655405633778049e-46
outer loop
vertex 149.48525864012097 5.96315133269791 52.999999999997186
vertex 149.36599903213272 5.057284674839085 35.999999999997186
vertex 149.36599903213272 5.057284674839085 52.999999999997186
endloop
endfacet
facet normal -0.9659258262890696 0.2588190451025162 -1.1200999443908159e-31
outer loop
vertex 149.36599903213272 5.057284674839085 35.999999999997186
vertex 149.48525864012097 5.96315133269791 52.999999999997186
vertex 149.48525864012097 5.96315133269791 35.999999999997186
endloop
endfacet
facet normal -0.7071067811865496 -0.7071067811865455 0.0
outer loop
vertex 152.34921967079993 12.327112363376841 35.999999999997186
vertex 150.485258640121 13.757379966757862 32.499999999997186
vertex 152.34921967079993 12.327112363376841 32.499999999997186
endloop
endfacet
facet normal -0.4999999999999997 -0.8660254037844389 0.0
outer loop
vertex 150.485258640121 13.757379966757862 32.499999999997186
vertex 152.34921967079993 12.327112363376841 35.999999999997186
vertex 150.485258640121 13.757379966757862 35.999999999997186
endloop
endfacet
facet normal 0.2588190451025205 0.9659258262890684 0.0
outer loop
vertex 143.6558872341983 -2.730181103903709 35.999999999997186
vertex 145.985258640121 -3.0368486673020962 32.499999999997186
vertex 143.6558872341983 -2.730181103903709 32.499999999997186
endloop
endfacet
facet normal 5.881332531126956e-16 1.0 0.0
outer loop
vertex 145.985258640121 -3.0368486673020962 32.499999999997186
vertex 143.6558872341983 -2.730181103903709 35.999999999997186
vertex 145.985258640121 -3.0368486673020962 35.999999999997186
endloop
endfacet
facet normal 0.0 0.0 -1.0
outer loop
vertex 141.485258640121 13.757379966757862 35.999999999997186
vertex 142.60451824810926 6.869017990556731 35.999999999997186
vertex 142.485258640121 5.96315133269791 35.999999999997186
endloop
endfacet
facet normal 0.0 0.0 -1.0
outer loop
vertex 142.60451824810926 6.869017990556731 35.999999999997186
vertex 141.485258640121 13.757379966757862 35.999999999997186
vertex 143.6558872341983 14.65648376929953 35.999999999997186
endloop
endfacet
facet normal 0.0 0.0 -1.0
outer loop
vertex 142.60451824810926 6.869017990556731 35.999999999997186
vertex 143.6558872341983 14.65648376929953 35.999999999997186
vertex 142.95416972687545 7.713151332697908 35.999999999997186
endloop
endfacet
facet normal 0.0 0.0 -1.0
outer loop
vertex 142.95416972687545 7.713151332697908 35.999999999997186
vertex 143.6558872341983 14.65648376929953 35.999999999997186
vertex 143.51038490596807 8.438025066850821 35.999999999997186
endloop
endfacet
facet normal 0.0 0.0 -1.0
outer loop
vertex 143.51038490596807 8.438025066850821 35.999999999997186
vertex 143.6558872341983 14.65648376929953 35.999999999997186
vertex 144.235258640121 8.994240245943438 35.999999999997186
endloop
endfacet
facet normal 0.0 0.0 -1.0
outer loop
vertex 144.235258640121 8.994240245943438 35.999999999997186
vertex 143.6558872341983 14.65648376929953 35.999999999997186
vertex 145.985258640121 14.963151332697915 35.999999999997186
endloop
endfacet
facet normal 0.0 0.0 -1.0
outer loop
vertex 144.235258640121 8.994240245943438 35.999999999997186
vertex 145.985258640121 14.963151332697915 35.999999999997186
vertex 145.07939198226217 9.343891724709643 35.999999999997186
endloop
endfacet
facet normal 0.0 0.0 -1.0
outer loop
vertex 145.07939198226217 9.343891724709643 35.999999999997186
vertex 145.985258640121 14.963151332697915 35.999999999997186
vertex 145.985258640121 9.463151332697903 35.999999999997186
endloop
endfacet
facet normal 0.0 0.0 -1.0
outer loop
vertex 145.985258640121 9.463151332697903 35.999999999997186
vertex 145.985258640121 14.963151332697915 35.999999999997186
vertex 148.31463004604367 14.65648376929953 35.999999999997186
endloop
endfacet
facet normal 0.0 0.0 -1.0
outer loop
vertex 145.985258640121 9.463151332697903 35.999999999997186
vertex 148.31463004604367 14.65648376929953 35.999999999997186
vertex 146.8911252979798 9.343891724709643 35.999999999997186
endloop
endfacet
facet normal 0.0 0.0 -1.0
outer loop
vertex 146.8911252979798 9.343891724709643 35.999999999997186
vertex 148.31463004604367 14.65648376929953 35.999999999997186
vertex 147.735258640121 8.994240245943438 35.999999999997186
endloop
endfacet
facet normal 0.0 0.0 -1.0
outer loop
vertex 147.735258640121 8.994240245943438 35.999999999997186
vertex 148.31463004604367 14.65648376929953 35.999999999997186
vertex 148.4601323742739 8.438025066850821 35.999999999997186
endloop
endfacet
facet normal 0.0 0.0 -1.0
outer loop
vertex 148.4601323742739 8.438025066850821 35.999999999997186
vertex 148.31463004604367 14.65648376929953 35.999999999997186
vertex 150.485258640121 13.757379966757862 35.999999999997186
endloop
endfacet
facet normal 0.0 0.0 -1.0
outer loop
vertex 148.4601323742739 8.438025066850821 35.999999999997186
vertex 150.485258640121 13.757379966757862 35.999999999997186
vertex 149.01634755336653 7.713151332697906 35.999999999997186
endloop
endfacet
facet normal 0.0 0.0 -1.0
outer loop
vertex 149.01634755336653 7.713151332697906 35.999999999997186
vertex 150.485258640121 13.757379966757862 35.999999999997186
vertex 149.36599903213272 6.869017990556731 35.999999999997186
endloop
endfacet
facet normal 0.0 0.0 -1.0
outer loop
vertex 149.36599903213272 6.869017990556731 35.999999999997186
vertex 150.485258640121 13.757379966757862 35.999999999997186
vertex 149.48525864012097 5.96315133269791 35.999999999997186
endloop
endfacet
facet normal 0.0 0.0 -1.0
outer loop
vertex 149.48525864012097 5.96315133269791 35.999999999997186
vertex 150.485258640121 13.757379966757862 35.999999999997186
vertex 150.48525864012097 -1.8310773013620472 35.999999999997186
endloop
endfacet
facet normal 0.0 0.0 -1.0
outer loop
vertex 150.48525864012097 -1.8310773013620472 35.999999999997186
vertex 150.485258640121 13.757379966757862 35.999999999997186
vertex 152.34921967079993 -0.40080969798102406 35.999999999997186
endloop
endfacet
facet normal 0.0 0.0 -1.0
outer loop
vertex 152.34921967079993 -0.40080969798102406 35.999999999997186
vertex 150.485258640121 13.757379966757862 35.999999999997186
vertex 152.34921967079993 12.327112363376841 35.999999999997186
endloop
endfacet
facet normal 0.0 0.0 -1.0
outer loop
vertex 152.34921967079993 -0.40080969798102406 35.999999999997186
vertex 152.34921967079993 12.327112363376841 35.999999999997186
vertex 153.77948727418095 1.4631513326979024 35.999999999997186
endloop
endfacet
facet normal 0.0 0.0 -1.0
outer loop
vertex 153.77948727418095 1.4631513326979024 35.999999999997186
vertex 152.34921967079993 12.327112363376841 35.999999999997186
vertex 153.77948727418095 10.463151332697914 35.999999999997186
endloop
endfacet
facet normal 0.0 0.0 -1.0
outer loop
vertex 153.77948727418095 1.4631513326979024 35.999999999997186
vertex 153.77948727418095 10.463151332697914 35.999999999997186
vertex 154.6785910767226 8.292522738620598 35.999999999997186
endloop
endfacet
facet normal 0.0 0.0 -1.0
outer loop
vertex 153.77948727418095 1.4631513326979024 35.999999999997186
vertex 154.6785910767226 8.292522738620598 35.999999999997186
vertex 154.6785910767226 3.633779926775213 35.999999999997186
endloop
endfacet
facet normal 0.0 0.0 -1.0
outer loop
vertex 154.6785910767226 3.633779926775213 35.999999999997186
vertex 154.6785910767226 8.292522738620598 35.999999999997186
vertex 154.985258640121 5.96315133269791 35.999999999997186
endloop
endfacet
facet normal 0.0 0.0 -1.0
outer loop
vertex 137.29192620351938 8.292522738620601 35.999999999997186
vertex 137.29192620351938 3.6337799267752247 35.999999999997186
vertex 136.98525864012097 5.963151332697911 35.999999999997186
endloop
endfacet
facet normal 0.0 0.0 -1.0
outer loop
vertex 137.29192620351938 3.6337799267752247 35.999999999997186
vertex 137.29192620351938 8.292522738620601 35.999999999997186
vertex 138.19103000606106 10.463151332697915 35.999999999997186
endloop
endfacet
facet normal 0.0 0.0 -1.0
outer loop
vertex 137.29192620351938 3.6337799267752247 35.999999999997186
vertex 138.19103000606106 10.463151332697915 35.999999999997186
vertex 138.19103000606106 1.4631513326979095 35.999999999997186
endloop
endfacet
facet normal 0.0 0.0 -1.0
outer loop
vertex 138.19103000606106 1.4631513326979095 35.999999999997186
vertex 138.19103000606106 10.463151332697915 35.999999999997186
vertex 139.62129760944208 12.327112363376841 35.999999999997186
endloop
endfacet
facet normal 0.0 0.0 -1.0
outer loop
vertex 138.19103000606106 1.4631513326979095 35.999999999997186
vertex 139.62129760944208 12.327112363376841 35.999999999997186
vertex 139.62129760944205 -0.40080969798101845 35.999999999997186
endloop
endfacet
facet normal 0.0 0.0 -1.0
outer loop
vertex 139.62129760944205 -0.40080969798101845 35.999999999997186
vertex 139.62129760944208 12.327112363376841 35.999999999997186
vertex 141.48525864012097 -1.8310773013620414 35.999999999997186
endloop
endfacet
facet normal 0.0 0.0 -1.0
outer loop
vertex 141.48525864012097 -1.8310773013620414 35.999999999997186
vertex 139.62129760944208 12.327112363376841 35.999999999997186
vertex 141.485258640121 13.757379966757862 35.999999999997186
endloop
endfacet
facet normal 0.0 0.0 -1.0
outer loop
vertex 141.48525864012097 -1.8310773013620414 35.999999999997186
vertex 141.485258640121 13.757379966757862 35.999999999997186
vertex 142.485258640121 5.96315133269791 35.999999999997186
endloop
endfacet
facet normal 0.0 0.0 -1.0
outer loop
vertex 141.48525864012097 -1.8310773013620414 35.999999999997186
vertex 142.485258640121 5.96315133269791 35.999999999997186
vertex 142.60451824810926 5.05728467483909 35.999999999997186
endloop
endfacet
facet normal 0.0 0.0 -1.0
outer loop
vertex 141.48525864012097 -1.8310773013620414 35.999999999997186
vertex 142.60451824810926 5.05728467483909 35.999999999997186
vertex 143.6558872341983 -2.730181103903709 35.999999999997186
endloop
endfacet
facet normal 0.0 0.0 -1.0
outer loop
vertex 143.6558872341983 -2.730181103903709 35.999999999997186
vertex 142.60451824810926 5.05728467483909 35.999999999997186
vertex 142.95416972687545 4.213151332697914 35.999999999997186
endloop
endfacet
facet normal 0.0 0.0 -1.0
outer loop
vertex 143.6558872341983 -2.730181103903709 35.999999999997186
vertex 142.95416972687545 4.213151332697914 35.999999999997186
vertex 143.51038490596807 3.4882775985449985 35.999999999997186
endloop
endfacet
facet normal 0.0 0.0 -1.0
outer loop
vertex 143.6558872341983 -2.730181103903709 35.999999999997186
vertex 143.51038490596807 3.4882775985449985 35.999999999997186
vertex 144.23525864012097 2.932062419452381 35.999999999997186
endloop
endfacet
facet normal 0.0 0.0 -1.0
outer loop
vertex 143.6558872341983 -2.730181103903709 35.999999999997186
vertex 144.23525864012097 2.932062419452381 35.999999999997186
vertex 145.985258640121 -3.0368486673020962 35.999999999997186
endloop
endfacet
facet normal 0.0 0.0 -1.0
outer loop
vertex 145.985258640121 -3.0368486673020962 35.999999999997186
vertex 144.23525864012097 2.932062419452381 35.999999999997186
vertex 145.07939198226217 2.5824109406861773 35.999999999997186
endloop
endfacet
facet normal 0.0 0.0 -1.0
outer loop
vertex 145.985258640121 -3.0368486673020962 35.999999999997186
vertex 145.07939198226217 2.5824109406861773 35.999999999997186
vertex 145.985258640121 2.463151332697916 35.999999999997186
endloop
endfacet
facet normal 0.0 0.0 -1.0
outer loop
vertex 145.985258640121 -3.0368486673020962 35.999999999997186
vertex 145.985258640121 2.463151332697916 35.999999999997186
vertex 146.8911252979798 2.5824109406861773 35.999999999997186
endloop
endfacet
facet normal 0.0 0.0 -1.0
outer loop
vertex 145.985258640121 -3.0368486673020962 35.999999999997186
vertex 146.8911252979798 2.5824109406861773 35.999999999997186
vertex 148.31463004604367 -2.7301811039037123 35.999999999997186
endloop
endfacet
facet normal 0.0 0.0 -1.0
outer loop
vertex 148.31463004604367 -2.7301811039037123 35.999999999997186
vertex 146.8911252979798 2.5824109406861773 35.999999999997186
vertex 147.73525864012097 2.9320624194523783 35.999999999997186
endloop
endfacet
facet normal 0.0 0.0 -1.0
outer loop
vertex 148.31463004604367 -2.7301811039037123 35.999999999997186
vertex 147.73525864012097 2.9320624194523783 35.999999999997186
vertex 148.46013237427388 3.488277598544997 35.999999999997186
endloop
endfacet
facet normal 0.0 0.0 -1.0
outer loop
vertex 148.31463004604367 -2.7301811039037123 35.999999999997186
vertex 148.46013237427388 3.488277598544997 35.999999999997186
vertex 150.48525864012097 -1.8310773013620472 35.999999999997186
endloop
endfacet
facet normal 0.0 0.0 -1.0
outer loop
vertex 150.48525864012097 -1.8310773013620472 35.999999999997186
vertex 148.46013237427388 3.488277598544997 35.999999999997186
vertex 149.01634755336653 4.213151332697912 35.999999999997186
endloop
endfacet
facet normal 0.0 0.0 -1.0
outer loop
vertex 150.48525864012097 -1.8310773013620472 35.999999999997186
vertex 149.01634755336653 4.213151332697912 35.999999999997186
vertex 149.36599903213272 5.057284674839085 35.999999999997186
endloop
endfacet
facet normal 0.0 0.0 -1.0
outer loop
vertex 150.48525864012097 -1.8310773013620472 35.999999999997186
vertex 149.36599903213272 5.057284674839085 35.999999999997186
vertex 149.48525864012097 5.96315133269791 35.999999999997186
endloop
endfacet
facet normal 0.9537944082955433 0.25556844144811214 0.15799050110667293
outer loop
vertex 155.6445169030117 8.551341783723117 32.499999999997186
vertex 151.18141106282764 8.963151332697919 57.499999999997186
vertex 151.7808135978554 7.516065603313041 57.499999999997186
endloop
endfacet
facet normal 0.8551486719688255 0.4937203159583541 0.15799050110667237
outer loop
vertex 151.18141106282764 8.963151332697919 57.499999999997186
vertex 155.6445169030117 8.551341783723117 32.499999999997186
vertex 154.64551267796537 10.963151332697912 32.499999999997186
endloop
endfacet
facet normal -0.2588190451025228 0.9659258262890678 -4.180269902021654e-31
outer loop
vertex 146.8911252979798 2.5824109406861773 52.999999999997186
vertex 147.73525864012097 2.9320624194523783 35.999999999997186
vertex 146.8911252979798 2.5824109406861773 35.999999999997186
endloop
endfacet
facet normal -0.5000000000000026 0.8660254037844372 -3.747927461194965e-31
outer loop
vertex 147.73525864012097 2.9320624194523783 35.999999999997186
vertex 146.8911252979798 2.5824109406861773 52.999999999997186
vertex 147.73525864012097 2.9320624194523783 52.999999999997186
endloop
endfacet
facet normal 3.7426661561717005e-16 1.0 -4.327733857248213e-31
outer loop
vertex 145.985258640121 2.463151332697916 52.999999999997186
vertex 146.8911252979798 2.5824109406861773 35.999999999997186
vertex 145.985258640121 2.463151332697916 35.999999999997186
endloop
endfacet
facet normal -0.2588190451025228 0.9659258262890678 -4.180269902021654e-31
outer loop
vertex 146.8911252979798 2.5824109406861773 35.999999999997186
vertex 145.985258640121 2.463151332697916 52.999999999997186
vertex 146.8911252979798 2.5824109406861773 52.999999999997186
endloop
endfacet
facet normal -0.9659258262890696 -0.25881904510251613 1.120099944390807e-31
outer loop
vertex 149.36599903213272 6.869017990556731 52.999999999997186
vertex 149.48525864012097 5.96315133269791 35.999999999997186
vertex 149.48525864012097 5.96315133269791 52.999999999997186
endloop
endfacet
facet normal -1.0 -2.1386663749552593e-16 -3.655405633778049e-46
outer loop
vertex 149.48525864012097 5.96315133269791 35.999999999997186
vertex 149.36599903213272 6.869017990556731 52.999999999997186
vertex 149.36599903213272 6.869017990556731 35.999999999997186
endloop
endfacet
facet normal 0.707106781186548 0.7071067811865471 -3.06016995763082e-31
outer loop
vertex 143.51038490596807 3.4882775985449985 52.999999999997186
vertex 144.23525864012097 2.932062419452381 35.999999999997186
vertex 143.51038490596807 3.4882775985449985 35.999999999997186
endloop
endfacet
facet normal 0.4999999999999991 0.8660254037844393 -3.747927461194969e-31
outer loop
vertex 144.23525864012097 2.932062419452381 35.999999999997186
vertex 143.51038490596807 3.4882775985449985 52.999999999997186
vertex 144.23525864012097 2.932062419452381 52.999999999997186
endloop
endfacet
facet normal 0.8660254037844436 0.49999999999999145 -2.163866928624066e-31
outer loop
vertex 142.95416972687545 4.213151332697914 35.999999999997186
vertex 143.51038490596807 3.4882775985449985 52.999999999997186
vertex 143.51038490596807 3.4882775985449985 35.999999999997186
endloop
endfacet
facet normal 0.707106781186548 0.7071067811865471 -3.06016995763082e-31
outer loop
vertex 143.51038490596807 3.4882775985449985 52.999999999997186
vertex 142.95416972687545 4.213151332697914 35.999999999997186
vertex 142.95416972687545 4.213151332697914 52.999999999997186
endloop
endfacet
facet normal -0.9659258262890696 0.2588190451025162 -1.1200999443908159e-31
outer loop
vertex 149.36599903213272 5.057284674839085 52.999999999997186
vertex 149.01634755336653 4.213151332697912 35.999999999997186
vertex 149.01634755336653 4.213151332697912 52.999999999997186
endloop
endfacet
facet normal -0.8660254037844384 0.5000000000000004 -2.163866928624112e-31
outer loop
vertex 149.01634755336653 4.213151332697912 35.999999999997186
vertex 149.36599903213272 5.057284674839085 52.999999999997186
vertex 149.36599903213272 5.057284674839085 35.999999999997186
endloop
endfacet
facet normal 0.4999999999999991 0.8660254037844393 -3.747927461194969e-31
outer loop
vertex 144.23525864012097 2.932062419452381 52.999999999997186
vertex 145.07939198226217 2.5824109406861773 35.999999999997186
vertex 144.23525864012097 2.932062419452381 35.999999999997186
endloop
endfacet
facet normal 0.25881904510251946 0.9659258262890688 -4.180269902021657e-31
outer loop
vertex 145.07939198226217 2.5824109406861773 35.999999999997186
vertex 144.23525864012097 2.932062419452381 52.999999999997186
vertex 145.07939198226217 2.5824109406861773 52.999999999997186
endloop
endfacet
facet normal -0.4999999999999987 -0.8660254037844394 3.74792746119497e-31
outer loop
vertex 147.735258640121 8.994240245943438 52.999999999997186
vertex 146.8911252979798 9.343891724709643 35.999999999997186
vertex 147.735258640121 8.994240245943438 35.999999999997186
endloop
endfacet
facet normal -0.2588190451025188 -0.965925826289069 4.180269902021658e-31
outer loop
vertex 146.8911252979798 9.343891724709643 35.999999999997186
vertex 147.735258640121 8.994240245943438 52.999999999997186
vertex 146.8911252979798 9.343891724709643 52.999999999997186
endloop
endfacet
facet normal 0.0 -1.0 4.327733857248213e-31
outer loop
vertex 145.985258640121 9.463151332697903 52.999999999997186
vertex 145.07939198226217 9.343891724709643 35.999999999997186
vertex 145.985258640121 9.463151332697903 35.999999999997186
endloop
endfacet
facet normal 0.2588190451025233 -0.9659258262890678 4.180269902021654e-31
outer loop
vertex 145.07939198226217 9.343891724709643 35.999999999997186
vertex 145.985258640121 9.463151332697903 52.999999999997186
vertex 145.07939198226217 9.343891724709643 52.999999999997186
endloop
endfacet
facet normal 0.4937203159583532 0.8551486719688259 0.15799050110667268
outer loop
vertex 148.98525864012097 11.15930375540455 57.499999999997186
vertex 153.05632645198645 13.034219144563385 32.499999999997186
vertex 150.985258640121 14.6234053705423 32.499999999997186
endloop
endfacet
facet normal 0.6982259668474328 0.6982259668474314 0.15799050110667234
outer loop
vertex 153.05632645198645 13.034219144563385 32.499999999997186
vertex 148.98525864012097 11.15930375540455 57.499999999997186
vertex 150.2278993272403 10.205792019817205 57.499999999997186
endloop
endfacet
facet normal -0.698225966847433 -0.698225966847431 0.1579905011066728
outer loop
vertex 141.74261795300168 1.7205106455786174 57.499999999997186
vertex 137.3250046022766 0.9631513326979103 32.499999999997186
vertex 138.9141908282555 -1.1079164791675649 32.499999999997186
endloop
endfacet
facet normal -0.8551486719688265 -0.4937203159583521 0.1579905011066725
outer loop
vertex 137.3250046022766 0.9631513326979103 32.499999999997186
vertex 141.74261795300168 1.7205106455786174 57.499999999997186
vertex 140.78910621741434 2.9631513326979038 57.499999999997186
endloop
endfacet
facet normal -0.7071067811865479 -0.7071067811865472 3.0601699576308198e-31
outer loop
vertex 148.4601323742739 8.438025066850821 52.999999999997186
vertex 149.01634755336653 7.713151332697906 35.999999999997186
vertex 149.01634755336653 7.713151332697906 52.999999999997186
endloop
endfacet
facet normal -0.8660254037844435 -0.4999999999999917 2.1638669286240663e-31
outer loop
vertex 149.01634755336653 7.713151332697906 35.999999999997186
vertex 148.4601323742739 8.438025066850821 52.999999999997186
vertex 148.4601323742739 8.438025066850821 35.999999999997186
endloop
endfacet
facet normal -0.8551486719688265 -0.493720315958352 0.1579905011066725
outer loop
vertex 140.78910621741434 2.9631513326979038 57.499999999997186
vertex 136.3260003772303 3.3749608816727044 32.499999999997186
vertex 137.3250046022766 0.9631513326979103 32.499999999997186
endloop
endfacet
facet normal -0.9537944082955433 -0.25556844144811214 0.15799050110667287
outer loop
vertex 136.3260003772303 3.3749608816727044 32.499999999997186
vertex 140.78910621741434 2.9631513326979038 57.499999999997186
vertex 140.18970368238658 4.410237062082781 57.499999999997186
endloop
endfacet
facet normal -0.5000000000000026 0.8660254037844372 -3.747927461194965e-31
outer loop
vertex 147.73525864012097 2.9320624194523783 52.999999999997186
vertex 148.46013237427388 3.488277598544997 35.999999999997186
vertex 147.73525864012097 2.9320624194523783 35.999999999997186
endloop
endfacet
facet normal -0.707106781186541 0.7071067811865542 -3.0601699576308574e-31
outer loop
vertex 148.46013237427388 3.488277598544997 35.999999999997186
vertex 147.73525864012097 2.9320624194523783 52.999999999997186
vertex 148.46013237427388 3.488277598544997 52.999999999997186
endloop
endfacet
facet normal -0.8660254037844384 0.5000000000000004 -2.163866928624112e-31
outer loop
vertex 149.01634755336653 4.213151332697912 52.999999999997186
vertex 148.46013237427388 3.488277598544997 35.999999999997186
vertex 148.46013237427388 3.488277598544997 52.999999999997186
endloop
endfacet
facet normal -0.707106781186541 0.7071067811865542 -3.0601699576308574e-31
outer loop
vertex 148.46013237427388 3.488277598544997 35.999999999997186
vertex 149.01634755336653 4.213151332697912 52.999999999997186
vertex 149.01634755336653 4.213151332697912 35.999999999997186
endloop
endfacet
facet normal 0.7071067811865422 -0.7071067811865528 3.0601699576308504e-31
outer loop
vertex 143.51038490596807 8.438025066850821 35.999999999997186
vertex 142.95416972687545 7.713151332697908 52.999999999997186
vertex 142.95416972687545 7.713151332697908 35.999999999997186
endloop
endfacet
facet normal 0.8660254037844434 -0.49999999999999184 2.163866928624074e-31
outer loop
vertex 142.95416972687545 7.713151332697908 52.999999999997186
vertex 143.51038490596807 8.438025066850821 35.999999999997186
vertex 143.51038490596807 8.438025066850821 52.999999999997186
endloop
endfacet
facet normal 0.49999999999999994 0.8660254037844387 0.0
outer loop
vertex 141.48525864012097 -1.8310773013620414 35.999999999997186
vertex 143.6558872341983 -2.730181103903709 32.499999999997186
vertex 141.48525864012097 -1.8310773013620414 32.499999999997186
endloop
endfacet
facet normal 0.2588190451025205 0.9659258262890684 0.0
outer loop
vertex 143.6558872341983 -2.730181103903709 32.499999999997186
vertex 141.48525864012097 -1.8310773013620414 35.999999999997186
vertex 143.6558872341983 -2.730181103903709 35.999999999997186
endloop
endfacet
facet normal -0.4999999999999997 -0.8660254037844389 0.0
outer loop
vertex 150.485258640121 13.757379966757862 35.999999999997186
vertex 148.31463004604367 14.65648376929953 32.499999999997186
vertex 150.485258640121 13.757379966757862 32.499999999997186
endloop
endfacet
facet normal -0.25881904510252024 -0.9659258262890684 0.0
outer loop
vertex 148.31463004604367 14.65648376929953 32.499999999997186
vertex 150.485258640121 13.757379966757862 35.999999999997186
vertex 148.31463004604367 14.65648376929953 35.999999999997186
endloop
endfacet
facet normal 0.0 0.0 -1.0
outer loop
vertex 136.3260003772303 8.551341783723121 32.499999999997186
vertex 136.3260003772303 3.3749608816727044 32.499999999997186
vertex 135.98525864012097 5.963151332697911 32.499999999997186
endloop
endfacet
facet normal 0.0 0.0 -1.0
outer loop
vertex 136.3260003772303 3.3749608816727044 32.499999999997186
vertex 136.3260003772303 8.551341783723121 32.499999999997186
vertex 137.3250046022766 10.963151332697915 32.499999999997186
endloop
endfacet
facet normal 0.0 0.0 -1.0
outer loop
vertex 136.3260003772303 3.3749608816727044 32.499999999997186
vertex 137.3250046022766 10.963151332697915 32.499999999997186
vertex 136.98525864012097 5.963151332697911 32.499999999997186
endloop
endfacet
facet normal 0.0 0.0 -1.0
outer loop
vertex 136.98525864012097 5.963151332697911 32.499999999997186
vertex 137.3250046022766 10.963151332697915 32.499999999997186
vertex 137.29192620351938 8.292522738620601 32.499999999997186
endloop
endfacet
facet normal 0.0 0.0 -1.0
outer loop
vertex 137.29192620351938 8.292522738620601 32.499999999997186
vertex 137.3250046022766 10.963151332697915 32.499999999997186
vertex 138.19103000606106 10.463151332697915 32.499999999997186
endloop
endfacet
facet normal 0.0 0.0 -1.0
outer loop
vertex 138.19103000606106 10.463151332697915 32.499999999997186
vertex 137.3250046022766 10.963151332697915 32.499999999997186
vertex 138.91419082825553 13.034219144563389 32.499999999997186
endloop
endfacet
facet normal 0.0 0.0 -1.0
outer loop
vertex 138.19103000606106 10.463151332697915 32.499999999997186
vertex 138.91419082825553 13.034219144563389 32.499999999997186
vertex 139.62129760944208 12.327112363376841 32.499999999997186
endloop
endfacet
facet normal 0.0 0.0 -1.0
outer loop
vertex 139.62129760944208 12.327112363376841 32.499999999997186
vertex 138.91419082825553 13.034219144563389 32.499999999997186
vertex 140.985258640121 14.6234053705423 32.499999999997186
endloop
endfacet
facet normal 0.0 0.0 -1.0
outer loop
vertex 139.62129760944208 12.327112363376841 32.499999999997186
vertex 140.985258640121 14.6234053705423 32.499999999997186
vertex 141.485258640121 13.757379966757862 32.499999999997186
endloop
endfacet
facet normal 0.0 0.0 -1.0
outer loop
vertex 141.485258640121 13.757379966757862 32.499999999997186
vertex 140.985258640121 14.6234053705423 32.499999999997186
vertex 143.3970681890958 15.622409595588596 32.499999999997186
endloop
endfacet
facet normal 0.0 0.0 -1.0
outer loop
vertex 141.485258640121 13.757379966757862 32.499999999997186
vertex 143.3970681890958 15.622409595588596 32.499999999997186
vertex 143.6558872341983 14.65648376929953 32.499999999997186
endloop
endfacet
facet normal 0.0 0.0 -1.0
outer loop
vertex 143.6558872341983 14.65648376929953 32.499999999997186
vertex 143.3970681890958 15.622409595588596 32.499999999997186
vertex 145.985258640121 15.963151332697914 32.499999999997186
endloop
endfacet
facet normal 0.0 0.0 -1.0
outer loop
vertex 143.6558872341983 14.65648376929953 32.499999999997186
vertex 145.985258640121 15.963151332697914 32.499999999997186
vertex 145.985258640121 14.963151332697915 32.499999999997186
endloop
endfacet
facet normal 0.0 0.0 -1.0
outer loop
vertex 145.985258640121 14.963151332697915 32.499999999997186
vertex 145.985258640121 15.963151332697914 32.499999999997186
vertex 148.5734490911462 15.622409595588596 32.499999999997186
endloop
endfacet
facet normal 0.0 0.0 -1.0
outer loop
vertex 145.985258640121 14.963151332697915 32.499999999997186
vertex 148.5734490911462 15.622409595588596 32.499999999997186
vertex 148.31463004604367 14.65648376929953 32.499999999997186
endloop
endfacet
facet normal 0.0 0.0 -1.0
outer loop
vertex 148.31463004604367 14.65648376929953 32.499999999997186
vertex 148.5734490911462 15.622409595588596 32.499999999997186
vertex 150.485258640121 13.757379966757862 32.499999999997186
endloop
endfacet
facet normal 0.0 0.0 -1.0
outer loop
vertex 150.485258640121 13.757379966757862 32.499999999997186
vertex 148.5734490911462 15.622409595588596 32.499999999997186
vertex 150.985258640121 14.6234053705423 32.499999999997186
endloop
endfacet
facet normal 0.0 0.0 -1.0
outer loop
vertex 150.485258640121 13.757379966757862 32.499999999997186
vertex 150.985258640121 14.6234053705423 32.499999999997186
vertex 152.34921967079993 12.327112363376841 32.499999999997186
endloop
endfacet
facet normal 0.0 0.0 -1.0
outer loop
vertex 152.34921967079993 12.327112363376841 32.499999999997186
vertex 150.985258640121 14.6234053705423 32.499999999997186
vertex 153.05632645198645 13.034219144563385 32.499999999997186
endloop
endfacet
facet normal 0.0 0.0 -1.0
outer loop
vertex 152.34921967079993 12.327112363376841 32.499999999997186
vertex 153.05632645198645 13.034219144563385 32.499999999997186
vertex 153.77948727418095 10.463151332697914 32.499999999997186
endloop
endfacet
facet normal 0.0 0.0 -1.0
outer loop
vertex 153.77948727418095 10.463151332697914 32.499999999997186
vertex 153.05632645198645 13.034219144563385 32.499999999997186
vertex 154.64551267796537 10.963151332697912 32.499999999997186
endloop
endfacet
facet normal 0.0 0.0 -1.0
outer loop
vertex 153.77948727418095 10.463151332697914 32.499999999997186
vertex 154.64551267796537 10.963151332697912 32.499999999997186
vertex 154.6785910767226 8.292522738620598 32.499999999997186
endloop
endfacet
facet normal 0.0 0.0 -1.0
outer loop
vertex 154.6785910767226 8.292522738620598 32.499999999997186
vertex 154.64551267796537 10.963151332697912 32.499999999997186
vertex 155.6445169030117 8.551341783723117 32.499999999997186
endloop
endfacet
facet normal 0.0 0.0 -1.0
outer loop
vertex 154.6785910767226 8.292522738620598 32.499999999997186
vertex 155.6445169030117 8.551341783723117 32.499999999997186
vertex 154.985258640121 5.96315133269791 32.499999999997186
endloop
endfacet
facet normal 0.0 0.0 -1.0
outer loop
vertex 154.985258640121 5.96315133269791 32.499999999997186
vertex 155.6445169030117 8.551341783723117 32.499999999997186
vertex 155.64451690301166 3.3749608816726933 32.499999999997186
endloop
endfacet
facet normal 0.0 0.0 -1.0
outer loop
vertex 155.64451690301166 3.3749608816726933 32.499999999997186
vertex 155.6445169030117 8.551341783723117 32.499999999997186
vertex 155.985258640121 5.96315133269791 32.499999999997186
endloop
endfacet
facet normal 0.0 0.0 -1.0
outer loop
vertex 136.98525864012097 5.963151332697911 32.499999999997186
vertex 137.3250046022766 0.9631513326979103 32.499999999997186
vertex 136.3260003772303 3.3749608816727044 32.499999999997186
endloop
endfacet
facet normal 0.0 0.0 -1.0
outer loop
vertex 137.3250046022766 0.9631513326979103 32.499999999997186
vertex 136.98525864012097 5.963151332697911 32.499999999997186
vertex 137.29192620351938 3.6337799267752247 32.499999999997186
endloop
endfacet
facet normal 0.0 0.0 -1.0
outer loop
vertex 137.3250046022766 0.9631513326979103 32.499999999997186
vertex 137.29192620351938 3.6337799267752247 32.499999999997186
vertex 138.19103000606106 1.4631513326979095 32.499999999997186
endloop
endfacet
facet normal 0.0 0.0 -1.0
outer loop
vertex 137.3250046022766 0.9631513326979103 32.499999999997186
vertex 138.19103000606106 1.4631513326979095 32.499999999997186
vertex 138.9141908282555 -1.1079164791675649 32.499999999997186
endloop
endfacet
facet normal 0.0 0.0 -1.0
outer loop
vertex 138.9141908282555 -1.1079164791675649 32.499999999997186
vertex 138.19103000606106 1.4631513326979095 32.499999999997186
vertex 139.62129760944205 -0.40080969798101845 32.499999999997186
endloop
endfacet
facet normal 0.0 0.0 -1.0
outer loop
vertex 138.9141908282555 -1.1079164791675649 32.499999999997186
vertex 139.62129760944205 -0.40080969798101845 32.499999999997186
vertex 140.98525864012097 -2.6971027051464778 32.499999999997186
endloop
endfacet
facet normal 0.0 0.0 -1.0
outer loop
vertex 140.98525864012097 -2.6971027051464778 32.499999999997186
vertex 139.62129760944205 -0.40080969798101845 32.499999999997186
vertex 141.48525864012097 -1.8310773013620414 32.499999999997186
endloop
endfacet
facet normal 0.0 0.0 -1.0
outer loop
vertex 140.98525864012097 -2.6971027051464778 32.499999999997186
vertex 141.48525864012097 -1.8310773013620414 32.499999999997186
vertex 143.3970681890958 -3.6961069301927756 32.499999999997186
endloop
endfacet
facet normal 0.0 0.0 -1.0
outer loop
vertex 143.3970681890958 -3.6961069301927756 32.499999999997186
vertex 141.48525864012097 -1.8310773013620414 32.499999999997186
vertex 143.6558872341983 -2.730181103903709 32.499999999997186
endloop
endfacet
facet normal 0.0 0.0 -1.0
outer loop
vertex 143.3970681890958 -3.6961069301927756 32.499999999997186
vertex 143.6558872341983 -2.730181103903709 32.499999999997186
vertex 145.985258640121 -4.0368486673020945 32.499999999997186
endloop
endfacet
facet normal 0.0 0.0 -1.0
outer loop
vertex 145.985258640121 -4.0368486673020945 32.499999999997186
vertex 143.6558872341983 -2.730181103903709 32.499999999997186
vertex 145.985258640121 -3.0368486673020962 32.499999999997186
endloop
endfacet
facet normal 0.0 0.0 -1.0
outer loop
vertex 145.985258640121 -4.0368486673020945 32.499999999997186
vertex 145.985258640121 -3.0368486673020962 32.499999999997186
vertex 148.31463004604367 -2.7301811039037123 32.499999999997186
endloop
endfacet
facet normal 0.0 0.0 -1.0
outer loop
vertex 145.985258640121 -4.0368486673020945 32.499999999997186
vertex 148.31463004604367 -2.7301811039037123 32.499999999997186
vertex 148.5734490911462 -3.6961069301927787 32.499999999997186
endloop
endfacet
facet normal 0.0 0.0 -1.0
outer loop
vertex 148.5734490911462 -3.6961069301927787 32.499999999997186
vertex 148.31463004604367 -2.7301811039037123 32.499999999997186
vertex 150.48525864012097 -1.8310773013620472 32.499999999997186
endloop
endfacet
facet normal 0.0 0.0 -1.0
outer loop
vertex 148.5734490911462 -3.6961069301927787 32.499999999997186
vertex 150.48525864012097 -1.8310773013620472 32.499999999997186
vertex 150.98525864012097 -2.697102705146485 32.499999999997186
endloop
endfacet
facet normal 0.0 0.0 -1.0
outer loop
vertex 150.98525864012097 -2.697102705146485 32.499999999997186
vertex 150.48525864012097 -1.8310773013620472 32.499999999997186
vertex 152.34921967079993 -0.40080969798102406 32.499999999997186
endloop
endfacet
facet normal 0.0 0.0 -1.0
outer loop
vertex 150.98525864012097 -2.697102705146485 32.499999999997186
vertex 152.34921967079993 -0.40080969798102406 32.499999999997186
vertex 153.05632645198645 -1.1079164791675706 32.499999999997186
endloop
endfacet
facet normal 0.0 0.0 -1.0
outer loop
vertex 153.05632645198645 -1.1079164791675706 32.499999999997186
vertex 152.34921967079993 -0.40080969798102406 32.499999999997186
vertex 153.77948727418095 1.4631513326979024 32.499999999997186
endloop
endfacet
facet normal 0.0 0.0 -1.0
outer loop
vertex 153.05632645198645 -1.1079164791675706 32.499999999997186
vertex 153.77948727418095 1.4631513326979024 32.499999999997186
vertex 154.64551267796537 0.9631513326979033 32.499999999997186
endloop
endfacet
facet normal 0.0 0.0 -1.0
outer loop
vertex 154.64551267796537 0.9631513326979033 32.499999999997186
vertex 153.77948727418095 1.4631513326979024 32.499999999997186
vertex 154.6785910767226 3.633779926775213 32.499999999997186
endloop
endfacet
facet normal 0.0 0.0 -1.0
outer loop
vertex 154.64551267796537 0.9631513326979033 32.499999999997186
vertex 154.6785910767226 3.633779926775213 32.499999999997186
vertex 155.64451690301166 3.3749608816726933 32.499999999997186
endloop
endfacet
facet normal 0.0 0.0 -1.0
outer loop
vertex 155.64451690301166 3.3749608816726933 32.499999999997186
vertex 154.6785910767226 3.633779926775213 32.499999999997186
vertex 154.985258640121 5.96315133269791 32.499999999997186
endloop
endfacet
facet normal 0.2555684414481112 -0.9537944082955435 0.15799050110667273
outer loop
vertex 147.5381729107361 0.16759637496349 57.499999999997186
vertex 145.985258640121 -4.0368486673020945 32.499999999997186
vertex 148.5734490911462 -3.6961069301927787 32.499999999997186
endloop
endfacet
facet normal -2.256935574810747e-16 -0.9874406319167054 0.1579905011066726
outer loop
vertex 145.985258640121 -4.0368486673020945 32.499999999997186
vertex 147.5381729107361 0.16759637496349 57.499999999997186
vertex 145.985258640121 -0.036848667302101214 57.499999999997186
endloop
endfacet
facet normal -2.1105022900752828e-16 -0.9874406319167055 0.1579905011066726
outer loop
vertex 145.985258640121 -0.036848667302101214 57.499999999997186
vertex 143.3970681890958 -3.6961069301927756 32.499999999997186
vertex 145.985258640121 -4.0368486673020945 32.499999999997186
endloop
endfacet
facet normal -0.2555684414481117 -0.9537944082955435 0.1579905011066726
outer loop
vertex 143.3970681890958 -3.6961069301927756 32.499999999997186
vertex 145.985258640121 -0.036848667302101214 57.499999999997186
vertex 144.43234436950587 0.16759637496349 57.499999999997186
endloop
endfacet
facet normal 0.0 -1.0 0.0
outer loop
vertex 145.985258640121 14.963151332697915 35.999999999997186
vertex 143.6558872341983 14.65648376929953 32.499999999997186
vertex 145.985258640121 14.963151332697915 32.499999999997186
endloop
endfacet
facet normal 0.25881904510252207 -0.9659258262890681 0.0
outer loop
vertex 143.6558872341983 14.65648376929953 32.499999999997186
vertex 145.985258640121 14.963151332697915 35.999999999997186
vertex 143.6558872341983 14.65648376929953 35.999999999997186
endloop
endfacet
endsolid bittycadeCase-v3
